<svg width="140" height="40" viewBox="0 0 140 40" fill="none" xmlns="http://www.w3.org/2000/svg">
<g clip-path="url(#clip0_3109_1489)">
<path d="M3.16955 17.2749L104.039 17.2703L101.071 0.0698681H0.0699463L3.16955 17.2749Z" fill="#231F20"/>
<path d="M50.7234 3.55675H57.502V4.47378H51.783V6.92743H57.2851V7.83671H51.783V11.1873H50.7234V3.55675Z" fill="white"/>
<path d="M50.7234 3.55675H57.502V4.47378H51.783V6.92743H57.2851V7.83671H51.783V11.1873H50.7234V3.55675Z" stroke="white" stroke-width="2" stroke-miterlimit="10"/>
<path d="M59.299 7.40286C59.299 7.99768 59.4523 8.76445 59.9697 9.34844C60.6838 10.1818 61.7929 10.4498 62.8974 10.4498C65.7212 10.4498 66.3982 8.66841 66.3982 7.37033C66.3982 5.36124 64.7903 4.24749 62.7037 4.30171C61.1144 4.34353 59.299 5.14283 59.299 7.40286ZM67.4918 7.47876C67.4918 10.0842 65.3526 11.3916 62.8974 11.3916C61.7836 11.3916 60.6606 11.1871 59.7668 10.5505C59.0186 10.0285 58.2193 9.07891 58.2193 7.46792C58.2193 4.64714 60.5428 3.37074 62.8215 3.37074C65.4935 3.38314 67.4918 4.95075 67.4918 7.47876Z" fill="white"/>
<path d="M59.299 7.40286C59.299 7.99768 59.4523 8.76445 59.9697 9.34844C60.6838 10.1818 61.7929 10.4498 62.8974 10.4498C65.7212 10.4498 66.3982 8.66841 66.3982 7.37033C66.3982 5.36124 64.7903 4.24749 62.7037 4.30171C61.1144 4.34353 59.299 5.14283 59.299 7.40286ZM67.4918 7.47876C67.4918 10.0842 65.3526 11.3916 62.8974 11.3916C61.7836 11.3916 60.6606 11.1871 59.7668 10.5505C59.0186 10.0285 58.2193 9.07891 58.2193 7.46792C58.2193 4.64714 60.5428 3.37074 62.8215 3.37074C65.4935 3.38314 67.4918 4.95075 67.4918 7.47876V7.47876Z" stroke="white" stroke-width="2" stroke-miterlimit="10"/>
<path d="M69.6203 4.47426V7.24083H73.3937C73.9855 7.24083 74.746 7.23153 75.1751 6.65684C75.3718 6.409 75.4338 6.11778 75.4338 5.8467C75.4338 5.55548 75.361 5.26427 75.2076 5.03501C74.8638 4.48356 74.3092 4.48356 73.812 4.47426H69.6203ZM68.5499 3.55724H73.7376C74.4099 3.56499 75.2169 3.57583 75.8799 4.1722C76.1262 4.38597 76.5584 4.88631 76.5584 5.80333C76.5584 7.63118 75.0109 7.87902 74.5028 7.96422L77.3174 11.1877H75.9016L73.3178 8.13771H69.6311V11.1877H68.5499V3.55724Z" fill="white"/>
<path d="M69.6203 4.47426V7.24083H73.3937C73.9855 7.24083 74.746 7.23153 75.1751 6.65684C75.3718 6.409 75.4338 6.11778 75.4338 5.8467C75.4338 5.55548 75.361 5.26427 75.2076 5.03501C74.8638 4.48356 74.3092 4.48356 73.812 4.47426H69.6203ZM68.5499 3.55724H73.7376C74.4099 3.56499 75.2169 3.57583 75.8799 4.1722C76.1262 4.38597 76.5584 4.88631 76.5584 5.80333C76.5584 7.63118 75.0109 7.87902 74.5028 7.96422L77.3174 11.1877H75.9016L73.3178 8.13771H69.6311V11.1877H68.5499V3.55724V3.55724Z" stroke="white" stroke-width="2" stroke-miterlimit="10"/>
<path d="M78.5484 3.55675H85.6073V4.46293L79.6188 10.2362H85.7158V11.1873H78.093V10.2904L84.0692 4.49546H78.5484V3.55675Z" fill="white"/>
<path d="M78.5484 3.55675H85.6073V4.46293L79.6188 10.2362H85.7158V11.1873H78.093V10.2904L84.0692 4.49546H78.5484V3.55675Z" stroke="white" stroke-width="2" stroke-miterlimit="10"/>
<path d="M91.0723 5.20875C91.0212 5.08018 90.9592 4.95006 90.9019 4.82149C90.8678 4.7239 90.8384 4.62476 90.8151 4.52873C90.7811 4.62476 90.7501 4.7332 90.7083 4.84163C90.6525 4.98259 90.5874 5.11116 90.5239 5.25367L88.9129 8.41833H92.6848L91.0723 5.20875ZM90.2637 3.54509H91.41L95.3228 11.188H94.0774L93.1511 9.30437H88.4591L87.5297 11.188H86.3214L90.2637 3.54509Z" fill="white"/>
<path d="M91.0723 5.20875C91.0212 5.08018 90.9592 4.95006 90.9019 4.82149C90.8678 4.7239 90.8384 4.62476 90.8151 4.52873C90.7811 4.62476 90.7501 4.7332 90.7083 4.84163C90.6525 4.98259 90.5874 5.11116 90.5239 5.25367L88.9129 8.41833H92.6848L91.0723 5.20875ZM90.2637 3.54509H91.41L95.3228 11.188H94.0774L93.1511 9.30437H88.4591L87.5297 11.188H86.3214L90.2637 3.54509V3.54509Z" stroke="white" stroke-width="2" stroke-miterlimit="10"/>
<path d="M40.2796 14.895H39.7312V3.22155H40.2796V14.895Z" fill="white"/>
<path d="M10.5107 14.9175L15.4985 14.9128L18.5749 10.1914L14.47 9.02963C13.2385 10.8606 10.5107 14.9175 10.5107 14.9175Z" fill="white"/>
<path d="M17.976 12.9741H20.8386L24.3673 7.5138H12.4987C12.446 7.5138 12.4321 7.53859 12.4274 7.54943C12.4305 7.55098 12.4367 7.55253 12.446 7.55563C12.7341 7.64857 20.1819 9.53373 20.1819 9.53373L17.976 12.9741Z" fill="white"/>
<path d="M22.0376 12.9741H24.7685L28.3019 7.5138H25.6329L22.0376 12.9741Z" fill="white"/>
<path d="M26.0009 12.9856H26.0102C26.6639 12.9856 27.9031 12.9035 28.8713 12.3489C29.7201 11.8564 31.1824 9.5545 32.2931 7.51443H29.4336L26.0009 12.9856Z" fill="white"/>
<path d="M16.0912 6.47583C16.0912 6.47583 30.2834 6.47428 31.0223 6.47428C32.8858 6.47428 34.3914 4.143 34.9011 3.24301L21.9357 3.24146C18.1824 3.24146 16.5761 5.5681 16.0912 6.47583Z" fill="white"/>
<path d="M135.428 38.2216L42.64 38.2278L46.1176 15.0543L139.045 15.0513L135.428 38.2216Z" fill="#EA0C80"/>
<path d="M135.428 38.2216L42.64 38.2278L46.1176 15.0544L139.045 15.0513L135.428 38.2216Z" stroke="#EC008C" stroke-width="11.0732" stroke-miterlimit="10"/>
<path d="M54.5128 35.5154L55.6653 28.2443H53.3603L52.2094 35.5154H47.3625L50.2003 17.6009H55.0472L54.0295 24.0154H56.336L57.3522 17.6009H62.1991L59.3613 35.5154H54.5128Z" fill="white"/>
<path d="M67.4163 31.3108C69.2457 31.3108 69.8932 27.6752 70.0698 26.5583C70.2464 25.443 70.7514 21.8059 68.922 21.8059C67.0926 21.8059 66.4451 25.4415 66.2685 26.5583C66.0934 27.6752 65.5869 31.3108 67.4163 31.3108ZM69.6392 17.2921C74.5542 17.2921 75.7051 22.187 75.0112 26.5599C74.3188 30.9312 71.6188 35.8262 66.7007 35.8262C61.781 35.8246 60.6331 30.9297 61.324 26.5583C62.0211 22.187 64.7179 17.2921 69.6392 17.2921Z" fill="white"/>
<path d="M80.819 25.8937C82.1016 25.8937 82.969 24.7784 83.1534 23.6136C83.4012 22.0459 82.557 21.3799 81.214 21.4511L80.5154 25.8705L80.819 25.8937ZM81.6477 35.5163L80.1421 28.0562L80.0878 28.1042C79.9732 28.9825 79.8834 29.8623 79.744 30.7406L78.9834 35.5163H74.138L76.9789 17.6018H81.657C85.8626 17.6018 88.7082 18.8379 87.9569 23.5671C87.6471 25.539 86.5132 27.2971 84.4654 28.0562L86.8989 35.5178L81.6477 35.5163Z" fill="white"/>
<path d="M87.4205 35.5176L90.2583 17.6031H95.1052L92.2689 35.5176H87.4205Z" fill="white"/>
<path d="M92.647 35.5175L99.3435 24.1368C99.802 23.353 100.484 22.4979 101.111 21.6909C100.154 21.7374 99.0693 21.8334 98.0237 21.8334H95.8845L96.5521 17.603L108.413 17.6046L101.17 29.8635C100.843 30.4336 100.474 30.9572 100.151 31.5024C101.041 31.4312 101.966 31.2902 102.892 31.2902H105.648L104.979 35.519L92.647 35.5175Z" fill="white"/>
<path d="M112.25 31.3137C114.083 31.3137 114.727 27.6781 114.904 26.5613C115.08 25.4444 115.585 21.8104 113.756 21.8104C111.925 21.8089 111.279 25.4444 111.102 26.5613C110.927 27.6781 110.418 31.3137 112.25 31.3137ZM114.473 17.295C119.388 17.2966 120.539 22.1899 119.845 26.5628C119.153 30.9342 116.454 35.8291 111.535 35.8291C106.615 35.8276 105.467 30.9326 106.158 26.5613C106.852 22.1899 109.552 17.295 114.473 17.295Z" fill="white"/>
<path d="M121.811 17.6047H126.421L128.585 28.3921L128.639 28.3457C128.777 26.2777 128.747 24.2345 129.073 22.1681L129.793 17.6047L134.451 17.6063L131.613 35.5208H126.955L124.982 25.1856L124.929 25.2321C124.777 26.919 124.729 28.5827 124.461 30.2696L123.629 35.5192H118.973L121.811 17.6047Z" fill="white"/>
</g>
<defs>
<clipPath id="clip0_3109_1489">
<rect width="140" height="39.0661" fill="white"/>
</clipPath>
</defs>
</svg>
