<svg width="175" height="29" viewBox="0 0 175 29" fill="none" xmlns="http://www.w3.org/2000/svg">
<g clip-path="url(#clip0_3109_1475)">
<path d="M174.773 21.4396L174.236 19.6584L173.732 18.03C173.732 18.03 172.139 13.0212 171.93 12.3615C171.674 11.5549 171.422 10.7473 171.173 9.93858L171.134 9.80204L174.665 5.71027L173.005 0.687988L155.213 0.704283L154.67 1.53871L154.458 0.705407L136.546 0.723388L136.106 1.67132L135.933 0.722264L117.881 0.741931L117.563 1.87922L117.442 0.741931L99.2053 0.758788L99.0304 2.61868L98.9739 0.758788L80.6441 0.777331L80.5835 2.47765L80.3935 0.775083L62.2199 0.794188L62.0981 1.89046L61.7729 0.795312L53.0095 0.802616L52.3102 5.51641L51.9111 4.54376L51.7182 4.52747L50.1863 0.805426L41.5341 0.813292L41.3587 1.71739L40.9031 0.813854L32.336 0.821721L32.1414 1.6657L31.6367 0.821721L23.1431 0.830711L22.1548 4.50106L19.8537 4.5033L19.4126 6.10697L15.4117 0.837454L7.14589 0.845883L0.0816574 22.0049L7.59167 28.6999H15.7741L17.0736 23.9839L17.7082 24.6644H19.8974L23.5423 28.6982L31.9502 28.696L32.1163 27.9329L32.7113 28.6971L41.1845 28.696L41.336 27.8706L41.8773 28.696L50.431 28.6949L51.0918 24.2721L53.2985 28.6949L61.9664 28.6932L62.0754 27.6812L62.453 28.6932L80.4833 28.6915L80.5474 27.0833L80.7461 28.6921L98.9209 28.6893L99.0963 26.9316L99.1575 28.6893L108.074 28.6876L108.353 27.4525L108.437 28.6876L117.245 28.6859L117.618 27.625L117.728 28.6859H126.44L126.889 27.7413L127.019 28.6859H135.648L136.166 27.8239L136.312 28.6853L144.866 28.682L149.811 21.8841L149.574 20.7951L152.315 20.7934L156.184 15.6256L159.515 28.6808L167.911 28.6797L174.919 21.9487L174.773 21.4396ZM89.8376 16.2729L89.9285 13.3842L98.5118 13.3791L98.587 12.4194L98.7222 16.2701L89.8376 16.2729Z" fill="#0E131E"/>
<path d="M15.7893 5.6367L14.6472 9.47786H19.7156L20.7802 5.68446L23.0971 5.68278L24.0836 2.004L30.7632 1.99726L26.0549 21.5155L18.8538 21.5177L21.0115 13.2297L18.4121 13.2269L17.2874 17.2641L12.6228 17.2658L13.7859 13.2246L11.1515 13.2314L8.61141 21.5206L1.54252 21.5245L8.03219 2.01917L14.5883 2.01299L13.501 5.55522L15.7893 5.6367ZM39.9742 2.03659L35.9943 21.5604L28.7913 21.5633L33.2951 2.04221L39.9742 2.03659ZM49.7154 15.2289L50.3121 11.1928L47.7033 11.1456L45.9785 21.5099L38.7662 21.511L42.5445 1.98658L49.2306 1.9804L48.645 5.59512L50.9338 5.65131L50.3913 9.42729L52.9652 9.46213L54.0636 1.97478L60.7543 1.96916L58.4101 21.5054L51.1902 21.5082L52.094 15.2857L49.7154 15.2289ZM78.5533 17.4771L78.3709 21.4992L61.1686 21.5043L63.3101 1.96692L79.2572 1.95118L79.0993 5.41025L69.7182 5.41868L69.4228 9.40425L78.9181 9.42898L78.7467 13.205L69.0725 13.2111L68.7474 17.4411L78.5533 17.4771ZM172.108 1.86353L173.253 5.33159L168.596 5.33496L168.626 5.44228C168.818 6.20085 169.026 6.97234 169.25 7.76013C169.476 8.55072 169.713 9.35424 169.959 10.1684C170.209 10.9854 170.462 11.8143 170.726 12.6431C170.989 13.4769 171.257 14.317 171.523 15.1559C171.684 15.6655 171.846 16.1791 172.01 16.7C172.177 17.2214 172.344 17.7463 172.508 18.2744C172.675 18.8043 172.839 19.337 173.003 19.8691C173.166 20.4024 173.329 20.9356 173.484 21.4689L166.215 21.4711L161.646 5.34226L156.986 5.3462L156.068 1.8787L172.108 1.86353ZM155.374 9.28064L156.366 13.16L146.641 13.1651L148.442 21.4767L141.187 21.4784L137.472 1.89612L153.494 1.88094L154.377 5.34788L144.946 5.35575L145.797 9.2767L155.374 9.28064ZM127.495 15.1649L128.391 21.4835L121.143 21.4852L118.899 1.9141L134.902 1.89893L138.412 21.4818L131.162 21.4835L130.218 15.1739L127.495 15.1649ZM132.194 7.47861L131.787 4.99276L128.618 4.99613L128.91 7.27408L126.423 7.25498L126.102 4.99782L123.036 5.00175L123.359 7.48536L126.173 7.48423L126.303 8.39789L124.888 8.39901L125.405 12.2278L127.103 12.2261L126.976 10.9242L129.493 10.9146L129.703 12.2239L131.424 12.2228L130.821 8.41193L129.418 8.40407L129.296 7.47918L132.194 7.47861ZM114.924 11.3518L117.317 11.3501L118.375 21.4852L111.135 21.4891L110.489 13.2381L107.808 13.1746L108.365 21.4891L101.125 21.493L100.348 1.93208L116.333 1.91747L117.09 9.17556L114.704 9.17331L114.924 11.3518ZM110.203 9.40987L109.889 5.38553L107.287 5.38609L107.555 9.411L110.203 9.40987ZM88.6144 5.40239L97.8877 5.39508L97.7846 1.93376L81.8171 1.95006L81.1347 21.4975L98.3614 21.493L98.242 17.4737L88.3924 17.4771L88.6144 5.40239Z" fill="#A9A09D"/>
<path d="M2.4871 21.5235C1.9679 21.5235 1.84903 21.8073 2.2243 22.1539L7.34751 26.8891C7.72161 27.2347 8.45408 27.5196 8.97386 27.5196H13.4841C14.0038 27.5196 14.1379 27.2195 13.7842 26.852L9.25648 22.186C8.90277 21.8207 8.18662 21.5207 7.66684 21.5207L2.4871 21.5235ZM19.7989 21.5184C19.2791 21.5184 19.1259 21.8337 19.4598 22.2169L23.4601 26.8194C23.7934 27.2049 24.4915 27.5184 25.0113 27.5184H29.7406C30.2604 27.5184 30.4317 27.1897 30.1217 26.7868L26.619 22.2472C26.3084 21.8443 25.6295 21.5151 25.1098 21.5156L19.7989 21.5184Z" fill="#282729"/>
<path d="M13.5668 17.2652C13.0476 17.2652 12.9037 17.5714 13.2486 17.9479L17.7 22.7932C18.045 23.1686 18.6737 23.4596 19.0991 23.4388C19.5227 23.4203 19.6259 23.0685 19.3269 22.6578L19.0169 22.2341C18.7174 21.8245 18.5857 21.094 18.725 20.6102L18.8112 20.3079C18.9511 19.8258 18.7996 19.1082 18.4773 18.7155L17.8725 17.9788C17.5502 17.5855 16.8615 17.2646 16.3423 17.2646H13.5668V17.2652ZM29.7359 21.5632C29.2156 21.5638 29.0437 21.8953 29.3513 22.2987L32.773 26.7844C33.079 27.189 33.7567 27.5194 34.277 27.5194H38.9352C39.4544 27.5194 39.6537 27.1727 39.3763 26.7479L36.496 22.333C36.2192 21.9082 35.5683 21.561 35.0485 21.5621L29.7359 21.5632ZM39.7108 21.5109C39.1916 21.5109 38.9877 21.861 39.2592 22.2886L42.0353 26.6709C42.3068 27.0985 42.9519 27.4486 43.4722 27.4486H48.0559C48.5762 27.4486 48.8145 27.0805 48.5844 26.6304L46.3963 22.3274C46.1667 21.8773 45.5549 21.5098 45.0351 21.5098L39.7108 21.5109ZM52.1354 21.5076C51.6162 21.5076 51.3697 21.8795 51.5883 22.3341L53.6779 26.6917C53.897 27.1474 54.5001 27.5188 55.0199 27.5188H59.7515C60.2713 27.5188 60.5504 27.1333 60.3703 26.6636L58.7347 22.36C58.5552 21.8897 57.9847 21.5053 57.4643 21.5053L52.1354 21.5076ZM62.1132 21.5048C61.594 21.5048 61.312 21.8913 61.4868 22.3611L63.0287 26.5175C63.2029 26.9906 63.7716 27.3761 64.2914 27.3761H78.2882C78.8085 27.3761 79.1739 26.9687 79.1011 26.4742L78.5032 22.3999C78.431 21.9031 77.945 21.4986 77.4269 21.4986L62.1132 21.5048ZM82.0793 21.4975C81.5601 21.4975 81.1802 21.9048 81.2361 22.4032L81.707 26.6125C81.7629 27.1114 82.2332 27.5182 82.7529 27.5182H96.6775C97.1978 27.5182 97.6727 27.1103 97.7333 26.6136L98.2502 22.3976C98.3114 21.8992 97.9349 21.4924 97.4157 21.493L82.0793 21.4975ZM102.071 21.4918C101.551 21.4918 101.073 21.8998 101.007 22.3965L100.462 26.5439C100.397 27.0417 100.768 27.448 101.288 27.448H105.948C106.468 27.448 106.992 27.049 107.112 26.5619L108.146 22.3751C108.264 21.8874 107.94 21.489 107.42 21.4896L102.071 21.4918ZM112.08 21.4885C111.56 21.4885 111.037 21.888 110.917 22.3757L109.904 26.4911C109.784 26.9788 110.111 27.3778 110.631 27.3778H115.29C115.811 27.3778 116.376 26.9912 116.548 26.5181L118.065 22.3454C118.235 21.8728 117.952 21.4857 117.432 21.4862L112.08 21.4885ZM122.087 21.4845C121.565 21.4845 120.999 21.8711 120.826 22.3437L119.271 26.59C119.098 27.062 119.381 27.4486 119.9 27.4486H124.555C125.075 27.4486 125.681 27.0766 125.902 26.6214L127.991 22.3077C128.211 21.8531 127.966 21.4817 127.447 21.4817L122.087 21.4845ZM132.107 21.4817C131.587 21.4823 130.976 21.8503 130.748 22.301L128.563 26.6287C128.336 27.08 128.575 27.448 129.094 27.448H133.898C134.419 27.448 135.056 27.0934 135.315 26.6597L137.94 22.2701C138.2 21.8368 137.988 21.4817 137.467 21.4817H132.107ZM142.133 21.4778C141.613 21.4778 140.966 21.8284 140.696 22.2566L137.91 26.6698C137.639 27.0979 137.843 27.4486 138.362 27.4486H143.092C143.612 27.4486 144.284 27.1142 144.585 26.7063L147.896 22.2195C148.196 21.811 148.019 21.4772 147.497 21.4772L142.133 21.4778ZM167.161 21.4705C166.641 21.4705 165.935 21.7773 165.591 22.1538L161.434 26.6939C161.089 27.0704 161.233 27.3772 161.754 27.3772H166.262C166.783 27.3772 167.512 27.0901 167.884 26.7417L172.81 22.1037C173.181 21.7542 173.061 21.4682 172.54 21.4688L167.161 21.4705Z" fill="#282729"/>
<path d="M6.83938 5.26483C6.79102 5.39182 7.17619 5.4969 7.69539 5.49802L12.649 5.51769C13.1688 5.51994 13.5989 5.41149 13.607 5.27832C13.614 5.14402 13.1945 5.03389 12.6747 5.03389H7.87195C7.35159 5.03389 6.88717 5.13784 6.83938 5.26483ZM6.49558 15.1914C6.65699 14.7155 6.36505 14.3255 5.84586 14.3255H4.63556C4.11578 14.3255 3.69157 14.4216 3.69157 14.5379C3.69157 14.6548 4.11636 14.7514 4.63556 14.7514H5.23459C5.75379 14.7514 6.04689 15.1403 5.88432 15.6168L4.78299 18.8494C4.62158 19.327 4.9141 19.7158 5.43388 19.7158H9.14518C9.66554 19.7158 10.0903 19.6197 10.0903 19.5029C10.0903 19.386 9.66554 19.2905 9.14518 19.2905H6.04398C5.52362 19.2905 5.23109 18.9005 5.39425 18.424L5.48224 18.1695C5.64424 17.693 6.20248 17.3036 6.72168 17.3036H9.58629C10.1067 17.3036 10.532 17.2081 10.532 17.0917C10.532 16.9737 10.1067 16.8788 9.58629 16.8788H6.86619C6.34699 16.8788 6.05447 16.4905 6.21646 16.0129L6.49558 15.1914ZM26.2496 6.10151C26.3201 5.60591 25.9512 5.19909 25.4326 5.19909L23.9968 5.20078C23.477 5.20134 23.0149 5.29742 22.9683 5.41374C22.9217 5.52837 23.3104 5.62445 23.8301 5.62445H24.9286C25.4483 5.62445 25.8166 6.03071 25.7461 6.52687L25.5445 7.96084C25.4746 8.45756 24.9921 8.86325 24.4735 8.86325H19.9347C19.4149 8.86325 18.9901 8.95934 18.9901 9.07565C18.9901 9.19253 19.4149 9.28861 19.9347 9.28861H28.8566C29.3764 9.28861 29.8012 9.19253 29.8012 9.07565C29.8012 8.95934 29.3764 8.86325 28.8566 8.86325H26.8061C26.2869 8.86325 25.9174 8.457 25.9885 7.96084L26.2496 6.10151ZM32.4834 19.1303C32.5767 18.637 32.5166 18.4442 32.35 18.7005C32.1828 18.9556 31.9683 19.568 31.8722 20.062L31.7317 20.7846C31.6356 21.2762 31.7958 22.0191 32.0878 22.4349L32.3255 22.772C32.618 23.1867 33.0842 23.6879 33.3622 23.8868C33.6395 24.0857 33.6308 23.9076 33.3418 23.4912L32.5446 22.3416C32.2556 21.9247 32.0953 21.1813 32.1892 20.6879L32.4834 19.1303ZM39.585 5.95597C39.585 5.8391 39.1607 5.75088 38.6415 5.76043L36.7792 5.79583C36.2594 5.80651 36.0496 5.8936 36.3124 5.99081C36.5752 6.08858 37.2156 6.16893 37.7348 6.16893H38.641C39.1607 6.16893 39.585 6.07285 39.585 5.95597ZM42.3225 20.1631C42.4362 19.6737 42.3791 19.4899 42.1978 19.7535C42.0178 20.0187 41.801 20.5205 41.7159 20.8689C41.6309 21.2184 41.699 21.8527 41.868 22.2781C42.0364 22.7046 42.3278 23.244 42.5148 23.4766C42.7031 23.7087 42.7235 23.5109 42.5597 23.0344L42.3196 22.3399C42.1559 21.8634 42.1133 21.0734 42.2252 20.5851L42.3225 20.1631ZM40.5418 15.2234C40.022 15.1981 39.5925 15.2723 39.585 15.3897C39.5797 15.5066 39.9999 15.6224 40.5191 15.6482L45.8002 15.9061C46.3182 15.9309 46.8788 16.1545 47.0443 16.4029C47.2098 16.649 47.4283 16.8007 47.5297 16.7377C47.6322 16.6748 47.5536 16.3776 47.3537 16.0798C47.155 15.782 46.5653 15.5167 46.049 15.4914L40.5418 15.2234ZM46.1323 5.27832C46.3339 5.41374 46.9242 5.52443 47.444 5.52443H47.8455C48.3647 5.52443 48.7907 5.42891 48.7907 5.31091C48.7907 5.19516 48.3653 5.08896 47.8455 5.07772L46.7086 5.05412C46.1894 5.04176 45.9301 5.14346 46.1323 5.27832ZM52.4373 15.3515C51.9187 15.3729 51.4968 15.4864 51.502 15.6027C51.5067 15.7196 51.9361 15.7977 52.4542 15.7763L55.5222 15.651C56.0414 15.6297 56.4026 16.0174 56.3246 16.5135L55.683 20.6036C55.6037 21.0981 55.6626 21.8966 55.8135 22.3764L55.947 22.8052C56.0979 23.285 56.3968 23.9189 56.6148 24.2144C56.8327 24.5094 56.8875 24.3588 56.7389 23.8784L56.2645 22.3461C56.1165 21.8657 56.0583 21.0672 56.1352 20.5727L56.8403 16.0657C56.9178 15.5701 56.5571 15.1818 56.0373 15.2038L52.4373 15.3515ZM53.4885 5.17549C53.4675 5.29068 53.8696 5.45363 54.383 5.53736L59.6117 6.1296C60.1268 6.19141 60.5486 6.14533 60.5486 6.02846C60.5486 5.91046 60.1268 5.76324 59.6117 5.70143L54.4576 5.11818C53.9442 5.03389 53.5077 5.0603 53.4885 5.17549ZM64.866 18.0026C64.8708 17.8844 64.8507 17.7666 64.807 17.6561C64.7633 17.5456 64.6968 17.4449 64.6116 17.3599C64.5263 17.2748 64.4241 17.2074 64.3111 17.1615C64.1981 17.1156 64.0766 17.0922 63.954 17.0929H62.0841C61.5649 17.0929 61.1389 17.1895 61.1389 17.3053C61.1389 17.4221 61.5649 17.5188 62.0841 17.5188H63.4966C63.6192 17.5183 63.7406 17.5418 63.8535 17.5877C63.9664 17.6337 64.0686 17.7011 64.1538 17.7861C64.2389 17.8711 64.3054 17.9718 64.3492 18.0822C64.393 18.1926 64.4132 18.3104 64.4085 18.4285L64.3328 20.5323C64.3147 21.0335 64.4056 21.8393 64.5344 22.3242L64.8835 23.6396C65.0134 24.1251 65.2546 24.7595 65.423 25.0488C65.5897 25.3399 65.6334 25.1764 65.518 24.6875L64.9528 22.2843C64.8386 21.796 64.7588 20.9863 64.7762 20.4856L64.866 18.0026ZM62.2426 7.6591C62.2426 7.77597 62.668 7.87262 63.1878 7.87262H64.9744C65.4936 7.87262 66.134 7.76024 66.3968 7.62482C66.6601 7.48772 66.4492 7.38264 65.93 7.38995L63.1872 7.43265C62.668 7.43996 62.2426 7.54222 62.2426 7.6591ZM74.4015 9.84546C74.3893 9.34368 74.2791 8.93405 74.1556 8.93405C74.0361 8.93405 73.9365 9.34368 73.9365 9.84546V11.9245C73.9365 12.4257 74.0513 12.5948 74.1935 12.3038C74.3345 12.0105 74.4394 11.362 74.4271 10.8603L74.4015 9.84546ZM76.5523 17.5997C76.541 17.8433 76.4332 18.0734 76.2512 18.2426C76.0692 18.4119 75.8268 18.5074 75.5739 18.5094H74.1445C73.6253 18.5094 73.1994 18.9196 73.1994 19.4214V20.7913C73.1994 21.2931 73.2978 21.7022 73.4208 21.7022C73.5426 21.7022 73.6416 21.2925 73.6416 20.7913V19.8468C73.6416 19.3461 74.0664 18.937 74.5874 18.937H76.0022C76.5214 18.937 76.9608 18.5274 76.9782 18.0256L76.9934 17.5845C77.0115 17.0833 76.9264 16.6709 76.8052 16.6658C76.684 16.6619 76.5692 17.0681 76.5517 17.5682L76.5523 17.5997ZM94.6438 18.5482C94.5424 18.7347 94.5051 19.295 94.5599 19.7934L94.6537 20.652C94.7079 21.1504 94.6933 21.964 94.6228 22.4602L94.0011 26.8014C93.9305 27.297 93.9935 27.6971 94.1415 27.6909C94.2913 27.6842 94.4655 27.2717 94.5296 26.7744L95.0826 22.4686C95.1461 21.9707 95.1531 21.156 95.0971 20.6581L94.9276 19.1152C94.8722 18.6173 94.7446 18.3616 94.6438 18.5482ZM81.3655 25.2489C81.3655 25.3658 81.7903 25.4618 82.3101 25.4618H82.5548C83.074 25.4618 83.4988 25.3663 83.4988 25.2489C83.4988 25.1326 83.074 25.0365 82.5548 25.0365H82.3101C81.7903 25.0365 81.3655 25.1326 81.3655 25.2489ZM83.0583 8.22549C83.3013 8.34237 83.9137 8.52892 84.4207 8.63905L88.0609 9.26558C88.5387 9.46449 88.9682 9.53922 89.0159 9.43134C89.0649 9.32458 88.7007 9.10712 88.2077 8.94979L83.5448 8.18335C83.0344 8.08895 82.8153 8.10862 83.0583 8.22549ZM82.9831 12.1622C83.1853 12.0251 82.926 11.9284 82.4068 11.947L82.2367 11.9526C81.7157 11.9706 81.2921 12.0813 81.2921 12.1981C81.2921 12.315 81.5898 12.4105 81.9529 12.4105C82.3176 12.4105 82.7803 12.2987 82.9831 12.1622ZM103.547 8.43789C103.578 8.71098 104.028 8.93461 104.55 8.93461H104.962C105.481 8.93461 105.971 8.95653 106.047 8.98181C106.127 9.00822 106.42 9.20882 106.523 9.1487C106.627 9.08914 106.55 8.92169 106.355 8.77784C106.159 8.634 105.551 8.51319 105.032 8.5115H104.944C104.424 8.51094 103.952 8.10188 103.894 7.60515L103.315 2.58288C103.256 2.08334 103.109 1.6872 102.99 1.70125C102.871 1.71417 102.817 2.13223 102.875 2.63007L103.335 6.61171C103.393 7.10956 103.012 7.51637 102.494 7.51637H100.995C100.475 7.51637 100.051 7.6119 100.051 7.72765C100.051 7.84453 100.476 7.94005 100.995 7.94005H102.543C103.063 7.94005 103.514 8.16425 103.547 8.43789ZM102.915 18.4319C102.95 18.9314 102.767 19.6956 102.508 20.1299L102.113 20.5587C101.992 21.0464 101.99 21.4645 102.108 21.4892C102.228 21.5134 102.455 21.1436 102.612 20.666C102.612 20.666 102.673 20.4581 102.865 20.1957C103.054 19.9316 103.266 19.7158 103.33 19.7158C103.394 19.7158 103.42 19.3062 103.384 18.8072L103.221 16.5107C103.211 16.3941 103.226 16.2768 103.266 16.1662C103.306 16.0557 103.369 15.9545 103.452 15.869C103.535 15.7835 103.636 15.7156 103.747 15.6698C103.859 15.6239 103.979 15.6011 104.101 15.6027H107.64C108.16 15.6027 108.583 15.5066 108.583 15.3897C108.583 15.2734 108.159 15.1762 107.64 15.1762H103.628C103.109 15.1762 102.711 15.5858 102.747 16.0854L102.915 18.4319ZM110.347 16.6669C110.347 16.7838 110.772 16.8799 111.292 16.8799H113.668C114.189 16.8799 114.795 16.7838 115.018 16.6669C115.243 16.5495 115 16.4529 114.481 16.4529L111.291 16.454C110.773 16.454 110.347 16.5501 110.347 16.6669ZM112.388 10.6602C112.52 10.7653 113.053 10.8518 113.571 10.8518H114.258C114.778 10.8518 115.202 10.7557 115.202 10.6394C115.202 10.5214 114.778 10.4315 114.258 10.4388L113.095 10.4551C112.573 10.4624 112.257 10.5546 112.388 10.6602ZM100.27 25.6034C100.26 25.7198 100.678 25.8451 101.196 25.8805L106.448 26.2451C106.965 26.2817 107.396 26.2153 107.407 26.0985C107.415 25.9822 106.998 25.858 106.479 25.8215L101.23 25.4579C100.712 25.4219 100.28 25.4871 100.27 25.6034ZM130.931 16.5147C130.411 16.5209 129.987 16.6203 129.988 16.7372C129.988 16.8541 130.414 16.9457 130.933 16.9412L137.356 17.6289C137.872 17.6772 138.331 17.6272 138.372 17.5177C138.415 17.4092 138.026 17.2772 137.51 17.2266L130.931 16.5147ZM150.953 8.65029C150.839 8.68906 150.768 9.13016 150.793 9.63137L151.38 12.4847C151.157 12.9376 151.063 13.3506 151.173 13.4034C151.282 13.4557 151.556 13.1292 151.782 12.678L151.209 9.48921C151.182 8.98856 151.068 8.61152 150.953 8.65029ZM147.544 3.33133C147.079 3.33133 146.579 2.94924 146.43 2.48454C146.282 2.01816 146.067 1.66529 145.95 1.70013C145.835 1.7344 145.865 2.15471 146.017 2.63345L146.098 2.88686C146.249 3.36617 146.756 3.75781 147.224 3.75781C147.69 3.75781 148.211 4.1444 148.379 4.61977L148.598 5.23337C148.767 5.70761 148.999 6.06442 149.112 6.02621C149.227 5.98913 149.182 5.56995 149.014 5.09626L148.693 4.19329C148.525 3.7196 148.007 3.33133 147.544 3.33133ZM164.99 15.6735C164.471 15.6735 164.047 15.769 164.047 15.8865C164.047 16.0045 164.471 16.1006 164.99 16.1006H171.046C171.567 16.1006 171.99 16.0045 171.99 15.8865C171.99 15.769 171.565 15.6735 171.046 15.6735H164.99ZM169.562 5.67221C169.678 5.64131 169.665 5.22044 169.526 4.73777L168.919 2.59411C168.785 2.11032 168.576 1.74002 168.457 1.77149C168.342 1.80183 168.357 2.2227 168.494 2.70593L169.101 4.84846C169.239 5.3317 169.446 5.70256 169.562 5.67221Z" fill="#0E131E"/>
<path d="M22.7777 5.54716H24.7566C25.2758 5.54716 25.2834 5.46737 24.7735 5.37241L24.0912 5.24317C23.5807 5.14709 23.1903 5.23587 23.2206 5.44209L22.7777 5.54716ZM11.7068 24.4316C11.5057 24.2169 10.9178 24.0911 10.4032 24.1512L9.26171 24.2872C8.74601 24.3473 8.74601 24.4451 9.26229 24.5046L11.1357 24.717C11.6526 24.7749 11.9096 24.6468 11.7068 24.4316ZM30.427 26.7736C30.2866 26.5589 29.747 26.4173 29.2284 26.4606L26.7722 26.6606C26.2542 26.7022 26.2542 26.7747 26.7711 26.8202L29.7447 27.0798C30.2621 27.1253 30.5704 26.9877 30.427 26.7736ZM53.0847 25.8869C53.0241 25.6925 53.3982 25.5447 53.9185 25.5588L54.5304 25.5767C55.0496 25.5897 55.0671 25.7172 54.5671 25.8571L54.1003 25.9864C53.6021 26.1263 53.1447 26.0813 53.0847 25.8869ZM79.0113 24.5041C78.9717 24.2113 78.5189 24.0293 78.0044 24.1001L76.2679 24.3389C75.7557 24.4097 75.7557 24.531 76.2673 24.6091L78.1501 24.8946C78.664 24.9727 79.051 24.7968 79.0113 24.5041ZM81.1802 25.5172C81.154 25.225 81.5566 25.0339 82.0717 25.0901L82.1259 25.0963C82.6434 25.1536 82.683 25.3773 82.2139 25.5947L82.0805 25.656C81.6114 25.8717 81.2064 25.8094 81.1802 25.5172ZM64.7797 20.6382C64.7185 20.2089 64.6026 20.1769 64.5216 20.5674C64.4406 20.9573 64.496 21.6693 64.6451 22.1486L64.764 22.5307C64.9138 23.0105 65.007 22.9937 64.9703 22.4953L64.958 22.3273C64.9136 21.7628 64.8541 21.1996 64.7797 20.6382ZM73.3847 20.9568C73.2833 20.7815 73.2151 21.0467 73.2337 21.5473L73.2413 21.785C73.26 22.2857 73.3404 22.3761 73.4231 21.9862C73.503 21.5957 73.4866 21.1326 73.3847 20.9568ZM55.9528 20.7792C55.9318 20.3494 55.8502 20.3494 55.7704 20.7792C55.6894 21.2091 55.7576 21.9491 55.9202 22.4245L56.0577 22.8228C56.2214 23.2982 56.2867 23.2819 56.201 22.7886L56.1451 22.4593C56.0519 21.9027 55.9877 21.342 55.9528 20.7792ZM41.9385 21.0989C41.8575 20.9231 41.7235 20.9551 41.6448 21.1697C41.5639 21.3844 41.6478 21.7822 41.8296 22.0553C42.0114 22.3278 42.1454 22.2975 42.1238 21.9845C42.1029 21.6732 42.0201 21.2748 41.9385 21.0989ZM32.1554 20.7983C32.0551 20.3679 31.8733 20.4157 31.7521 20.9034V20.9051C31.6303 21.3917 31.8296 22.0783 32.1926 22.4295C32.5563 22.7813 32.7375 22.7335 32.5971 22.3239C32.4282 21.8214 32.2808 21.3125 32.1554 20.7983ZM14.5399 20.1774C14.3983 20.0021 14.7066 19.8942 15.2246 19.9375L16.7228 20.0628C17.2408 20.1061 17.242 20.1931 16.7274 20.2578L15.7345 20.3814C15.22 20.4449 14.6821 20.3533 14.5399 20.1774ZM94.7679 20.4752C94.8419 19.9796 94.9888 19.974 95.1001 20.4634L95.1443 20.6685C95.2539 21.1585 95.2341 21.9558 95.1012 22.4402L94.9212 23.0909C94.7877 23.5735 94.6671 23.5606 94.6525 23.0594L94.6339 22.4705C94.6187 21.9693 94.6665 21.154 94.7405 20.6573L94.7679 20.4752ZM88.8685 9.53779C88.8685 9.75244 88.5166 9.69569 88.0865 9.41586L87.8092 9.23436C87.3791 8.95229 87.4403 8.81743 87.9461 8.93431L87.9484 8.93487C88.4554 9.05287 88.8685 9.32258 88.8685 9.53779ZM117.593 23.9708C117.653 23.7758 117.278 23.6286 116.758 23.6421L116.073 23.6612C115.554 23.6758 115.539 23.7977 116.038 23.9343L116.573 24.0787C117.075 24.2136 117.533 24.1647 117.593 23.9708ZM113.914 20.9573C113.772 20.6646 113.672 20.8354 113.692 21.3366L113.695 21.4299C113.715 21.93 113.83 22.148 113.95 21.9143C114.073 21.6799 114.057 21.2501 113.914 20.9573ZM126.973 24.8581C127.054 24.6434 126.695 24.5012 126.178 24.5411L124.384 24.6799C123.865 24.7193 123.862 24.8131 124.376 24.889L125.892 25.1115C126.404 25.1868 126.891 25.0727 126.973 24.8581ZM125.134 21.0635C125.052 20.8287 124.937 20.8129 124.877 21.0276C124.816 21.2428 124.834 21.7215 124.913 22.0929C124.994 22.4632 125.11 22.4795 125.169 22.1278C125.23 21.7766 125.215 21.2978 125.134 21.0635ZM151.209 13.5093C151.027 13.4509 151.044 13.0356 151.246 12.5872C151.448 12.1383 151.597 12.1799 151.576 12.6811L151.575 12.7058C151.556 13.2065 151.391 13.5689 151.209 13.5093ZM138.851 24.3613C139.033 24.1473 139.602 24.0321 140.116 24.1062L142.661 24.4743C143.175 24.5485 143.171 24.6215 142.652 24.635L139.464 24.7249C138.945 24.7406 138.67 24.576 138.851 24.3613ZM162.977 24.3613C163.2 24.0686 163.8 23.9062 164.311 24.0023L166.649 24.4372C167.158 24.5322 167.151 24.6327 166.633 24.6631L163.517 24.839C162.996 24.8704 162.755 24.6546 162.977 24.3613ZM163.935 15.8496C163.834 15.5181 164.17 15.3074 164.684 15.381L166.787 15.6805C167.301 15.7541 167.303 15.8884 166.791 15.9789L165.05 16.2874C164.539 16.3778 164.038 16.1812 163.935 15.8496ZM161.469 5.99106C161.308 5.85396 161.159 5.33251 161.141 4.83242L161.137 4.73746C161.12 4.2368 161.212 4.22444 161.345 4.70824L161.522 5.35836C161.655 5.84272 161.631 6.12817 161.469 5.99106ZM138.08 17.8725L136.751 17.3589C136.268 17.1729 136.296 17.0589 136.813 17.1055L138.226 17.233L138.08 17.8725ZM87.5819 21.9845C87.6815 21.7125 87.6815 21.2815 87.5819 21.027C87.4817 20.7742 86.9735 20.5679 86.4543 20.5679H85.9142C85.3944 20.5679 84.821 20.8067 84.6392 21.1001C84.4568 21.3928 84.7173 21.7446 85.2172 21.8817L86.4916 22.2323C86.9916 22.3688 87.4817 22.257 87.5819 21.9845Z" fill="#0E131E"/>
<path d="M86.699 21.2754C86.3535 20.9253 86.371 20.6371 86.7358 20.6371C87.1 20.6371 87.5469 20.8129 87.7287 21.0276C87.9099 21.2428 87.8336 21.7659 87.558 22.1907L87.456 22.3486C87.1792 22.7723 87.0382 22.8493 87.1384 22.5172C87.2421 22.1845 87.0428 21.6271 86.699 21.2754ZM53.4139 5.3168C53.4547 5.04428 53.8993 4.91953 54.4028 5.04203L54.6294 5.09653C55.1341 5.21903 55.1317 5.4112 54.6259 5.52526L54.2606 5.6073C53.7548 5.72137 53.3731 5.59101 53.4139 5.3168ZM29.6182 9.18212C29.5162 9.35744 29.0221 9.40464 28.5157 9.28776L28.2191 9.21865C27.7151 9.10177 27.7244 8.98152 28.2448 8.95118L28.8572 8.91634C29.3764 8.88712 29.7196 9.00625 29.6182 9.18212ZM10.4563 17.0201C10.5384 16.7852 10.1859 16.6723 9.67661 16.7689L8.88587 16.9173C8.376 17.0133 8.37833 17.1555 8.89112 17.2325L9.37593 17.3061C9.88814 17.3831 10.3753 17.255 10.4563 17.0201Z" fill="#0E131E"/>
<path d="M11.9276 24.5042C11.7662 24.3289 11.7528 23.7906 11.9002 23.3113L12.103 22.6465C12.2493 22.1655 12.3484 22.1818 12.3245 22.6819L12.265 23.9119C12.2411 24.4143 12.0896 24.6784 11.9276 24.5042ZM30.3175 26.8439C30.1555 26.7462 30.1555 26.3163 30.3175 25.8865C30.4795 25.4572 30.6118 25.5167 30.6118 26.0179V26.1101C30.6118 26.6113 30.4795 26.9417 30.3175 26.8439ZM46.905 16.1701C46.8852 15.8576 47.0233 15.9829 47.2138 16.4504L47.3304 16.7404C47.5215 17.2068 47.5116 17.3967 47.3088 17.1629C47.1066 16.9286 46.9248 16.4819 46.905 16.1701ZM139.073 24.6458C139.255 24.5087 139.287 24.003 139.144 23.5214L138.927 22.7898C138.784 22.3083 138.677 22.324 138.691 22.8247L138.721 23.9833C138.732 24.484 138.891 24.7823 139.073 24.6458ZM163.347 24.5031C163.61 24.366 163.648 23.8822 163.429 23.4281L162.455 21.3941C162.237 20.9378 162.137 20.9681 162.232 21.462L162.696 23.8557C162.791 24.3491 163.084 24.6402 163.347 24.5031ZM164.376 15.8149C164.275 15.6194 164.004 15.8279 163.775 16.2774L162.77 18.2592C162.54 18.7093 162.604 18.7464 162.911 18.3429L164.002 16.9033C164.31 16.5005 164.478 16.011 164.376 15.8149Z" fill="#282729"/>
<path d="M148.597 6.09764L148.637 4.95249C148.654 4.45071 148.776 4.43835 148.907 4.92271L149.258 6.23924" fill="#0E131E"/>
<path d="M8.43485 24.9997C7.96985 24.8632 8.00306 24.7834 8.50828 24.8238C9.06136 24.8673 9.61304 24.9261 10.1626 25.0003C10.5664 25.0587 10.5338 25.1391 10.0892 25.1767C9.64398 25.216 8.89986 25.1362 8.43485 24.9997ZM31.7207 22.488C31.3541 22.134 31.3005 22.1773 31.6018 22.5846L31.9747 23.0881C32.2766 23.496 32.7561 23.9725 33.0399 24.149C33.3225 24.3243 33.3068 24.1816 33.0038 23.8298C32.6134 23.3881 32.2061 22.9604 31.783 22.5476L31.7207 22.488ZM41.2037 21.4895C41.0814 21.4895 41.1484 21.8238 41.3506 22.2346C41.5528 22.6442 41.6518 22.6442 41.5714 22.2346C41.4904 21.8233 41.3249 21.4895 41.2037 21.4895ZM54.7407 26.0291C54.3357 25.9898 54.4237 25.8853 54.9348 25.7942L55.4994 25.6959C56.0105 25.606 56.2144 25.6611 55.951 25.8173C55.6906 25.9729 55.1446 26.0679 54.7407 26.0291ZM64.1906 22.234C64.0082 21.9806 63.9418 22.1396 64.0426 22.588C64.144 23.0364 64.4091 23.7236 64.6317 24.113C64.8526 24.5041 64.9394 24.4237 64.8217 23.9366L64.7366 23.5837C64.6177 23.0943 64.373 22.4869 64.1906 22.234ZM95.4537 23.0134C95.3925 22.7206 95.2422 22.7684 95.1222 23.119C95.001 23.4702 94.9013 24.1394 94.9013 24.6092C94.9013 25.0767 95.0359 25.0711 95.2014 24.5968L95.2655 24.4097C95.4287 23.9349 95.5143 23.3061 95.4537 23.0134ZM85.0366 21.0602C84.934 20.7613 84.6992 20.8124 84.5145 21.1731C84.3297 21.5339 84.5628 22.0081 85.029 22.2278L85.0523 22.2374C85.5173 22.456 85.7486 22.4031 85.5622 22.1188C85.3774 21.8362 85.1391 21.3597 85.0366 21.0602ZM102.513 26.1701C102.049 26.0538 102.093 25.9577 102.612 25.9577H102.783C103.302 25.9577 104.108 26.0853 104.574 26.2415C105.039 26.3977 104.997 26.4966 104.476 26.4606L104.303 26.4488C103.785 26.4123 102.98 26.2876 102.513 26.1701ZM114.32 22.234C114.282 22.0581 114.131 22.2183 113.989 22.588C113.846 22.9583 113.88 23.1027 114.063 22.9077C114.244 22.7122 114.362 22.4082 114.32 22.234ZM125.677 21.8469C125.637 21.6727 125.487 21.8317 125.346 22.2025C125.204 22.5723 125.238 22.7178 125.42 22.5211C125.602 22.3256 125.719 22.0227 125.677 21.8469ZM123.855 25.1368C123.344 25.0424 123.351 24.925 123.867 24.8761L124.267 24.839C124.784 24.7912 125.422 24.8789 125.687 25.0362C125.949 25.1919 125.867 25.32 125.502 25.32C125.138 25.32 124.423 25.2424 123.912 25.1475L123.855 25.1368ZM140.545 25.107C140.079 25.1452 140.079 25.066 140.545 24.9295C141.01 24.7924 141.815 24.7154 142.331 24.7581L143.024 24.8165C143.54 24.8587 143.54 24.9182 143.021 24.9463L142.332 24.9834C141.815 25.0132 141.009 25.0683 140.545 25.107Z" fill="#595558"/>
<path d="M151.318 13.6517C151.075 13.7501 150.714 14.2075 150.514 14.6705L150.504 14.6896C150.305 15.1526 150.398 15.2048 150.711 14.8053L151.186 14.2002C151.503 13.8001 151.561 13.5534 151.318 13.6517Z" fill="#282729"/>
<path d="M169.599 5.88501C169.376 5.88501 169.153 5.47651 169.102 4.9781L169.064 4.5932C169.014 4.09311 169.15 4.05939 169.363 4.51566L169.617 5.05452C169.83 5.51135 169.823 5.88501 169.599 5.88501ZM100.087 7.90561C100.068 7.65219 100.476 7.4589 100.995 7.47575L101.311 7.48531C101.831 7.50273 101.862 7.67242 101.383 7.86403L100.996 8.01687C100.516 8.20904 100.107 8.15847 100.087 7.90561ZM74.2313 8.82769C74.0274 8.72992 73.9161 9.05639 73.9837 9.55311L74.0356 9.947C74.1031 10.4437 74.2523 10.451 74.3706 9.96273L74.3858 9.89362C74.5041 9.40533 74.4335 8.92602 74.2313 8.82769ZM51.0953 15.7441C51.0347 15.5492 51.4105 15.3901 51.9303 15.3901H53.9407C54.4599 15.3901 54.468 15.4705 53.9587 15.5677L52.1331 15.9189C51.6238 16.0172 51.1553 15.9391 51.0953 15.7441ZM10.0338 19.6443C10.0647 19.4982 9.66438 19.3774 9.14402 19.3774H8.66153C8.14058 19.3774 8.12893 19.4752 8.63356 19.5943L9.06069 19.6949C9.56473 19.8146 10.0024 19.7904 10.0338 19.6443Z" fill="#0E131E"/>
<path d="M2.72018 21.2667C2.2004 21.2728 1.85834 21.3566 1.9609 21.4538C2.06288 21.5521 2.571 21.6313 3.0902 21.6313H6.9396C7.45763 21.6313 7.96634 21.5358 8.06773 21.4184C8.16913 21.3009 7.82533 21.2105 7.30613 21.2161L2.72018 21.2667ZM20.1555 21.2667C19.6346 21.2728 19.292 21.3566 19.3945 21.4538C19.4953 21.5521 20.0023 21.6313 20.5215 21.6313H24.3709C24.8901 21.6313 25.3982 21.5358 25.5002 21.4184C25.6016 21.3009 25.2578 21.2105 24.7392 21.2161L20.1555 21.2667ZM29.9573 21.193C29.4376 21.2082 29.0407 21.3026 29.0734 21.4004C29.1083 21.4987 29.5611 21.5779 30.0809 21.5779H30.1473C30.6671 21.5779 31.1204 21.4819 31.156 21.365C31.1898 21.247 30.7935 21.1655 30.2738 21.1812L29.9573 21.193ZM12.4678 12.9471C11.9486 12.964 11.5518 13.0578 11.5862 13.155C11.6223 13.2528 12.0751 13.3332 12.5942 13.3332H12.6595C13.1787 13.3332 13.6315 13.2371 13.6676 13.1202C13.702 13.0022 13.3052 12.9202 12.786 12.9365L12.4678 12.9471ZM19.6946 12.9471C19.176 12.964 18.7797 13.0578 18.8135 13.155C18.8497 13.2528 19.3019 13.3332 19.8205 13.3332H19.8863C20.4061 13.3332 20.8589 13.2371 20.8938 13.1202C20.9294 13.0022 20.5314 12.9202 20.0116 12.9365L19.6946 12.9471ZM5.23924 14.0608C4.72063 14.0788 4.32205 14.1732 4.35294 14.2721C4.38266 14.3693 4.80571 14.4485 5.28936 14.4485C5.77301 14.4485 6.19431 14.3525 6.22461 14.2361C6.25608 14.1193 5.85692 14.0383 5.33831 14.0575L5.23924 14.0608ZM13.9024 16.8973C13.3821 16.9069 13.0103 16.9934 13.0738 17.0917C13.1391 17.1901 13.6169 17.2682 14.1355 17.2682H15.8627C16.383 17.2682 16.8603 17.1732 16.9238 17.0569C16.9885 16.94 16.6156 16.8518 16.0964 16.8602L13.9024 16.8973ZM9.93008 4.76922C9.40972 4.77821 9.03795 4.8653 9.10263 4.96251C9.16615 5.05972 9.64397 5.13951 10.1626 5.13951H11.8921C12.4124 5.13951 12.8897 5.04399 12.9532 4.92711C13.0161 4.80967 12.6432 4.72089 12.124 4.72932L9.93008 4.76922ZM39.9963 21.193C39.4777 21.2082 39.0803 21.3026 39.1153 21.4004C39.1508 21.4987 39.603 21.5779 40.1222 21.5779H40.1869C40.7061 21.5779 41.1606 21.4819 41.1955 21.365C41.2305 21.247 40.8337 21.1655 40.3127 21.1812L39.9963 21.193ZM57.1526 21.1902C56.6328 21.2077 56.2336 21.3026 56.2657 21.4009C56.2966 21.4993 56.7184 21.5791 57.2021 21.5791C57.6875 21.5791 58.1076 21.483 58.1379 21.365C58.1694 21.2481 57.7679 21.1678 57.2516 21.1857L57.1526 21.1902ZM43.1966 21.2054C42.6774 21.2172 42.2969 21.3037 42.3534 21.4015C42.4088 21.4998 42.8796 21.5779 43.3988 21.5779H44.6901C45.2099 21.5779 45.6801 21.4819 45.736 21.3655C45.7914 21.2487 45.4121 21.1599 44.8923 21.1711L43.1966 21.2054ZM52.2991 21.2065C51.7788 21.2166 51.4058 21.3032 51.4682 21.4015C51.5311 21.4998 52.0072 21.5785 52.5264 21.5785H54.1539C54.6743 21.5785 55.1498 21.4824 55.2133 21.3655C55.2751 21.2487 54.901 21.1593 54.3818 21.17L52.2991 21.2065ZM62.341 21.2009C61.8218 21.2133 61.4338 21.3037 61.478 21.4009C61.5241 21.4993 61.9862 21.5774 62.5054 21.5774H63.2087C63.7279 21.5774 64.1906 21.4813 64.2372 21.3644C64.2832 21.2475 63.8957 21.1616 63.3754 21.1745L62.341 21.2009ZM82.2547 21.2009C81.7355 21.2133 81.3474 21.3037 81.394 21.4009C81.4406 21.4993 81.9033 21.5774 82.4231 21.5774H83.1235C83.6421 21.5774 84.1059 21.4813 84.1526 21.3644C84.1992 21.2475 83.8117 21.1616 83.2925 21.1745L82.2547 21.2009ZM96.4327 21.1975C95.9135 21.211 95.5213 21.3032 95.5621 21.4004C95.6035 21.4987 96.0603 21.5779 96.5818 21.5779H96.9897C97.5095 21.5779 97.9681 21.4819 98.0089 21.365C98.0509 21.2475 97.6593 21.1633 97.1395 21.1779L96.4327 21.1975ZM103.496 21.2116C102.977 21.2189 102.622 21.3032 102.709 21.4009C102.796 21.4993 103.293 21.5774 103.812 21.5774H106.898C107.417 21.5774 107.913 21.4813 108.002 21.3644C108.09 21.2475 107.737 21.1565 107.216 21.1633L103.496 21.2116ZM112.212 21.1947C111.692 21.2099 111.298 21.3032 111.334 21.4015C111.37 21.4987 111.825 21.5785 112.342 21.5785H112.49C113.01 21.5785 113.464 21.4824 113.5 21.3655C113.536 21.2481 113.142 21.1655 112.62 21.1807L112.212 21.1947ZM115.358 21.2054C114.836 21.2172 114.459 21.3037 114.515 21.4015C114.571 21.4998 115.043 21.5779 115.562 21.5779H116.885C117.405 21.5779 117.876 21.4819 117.934 21.3655C117.988 21.2487 117.61 21.1599 117.09 21.1711L115.358 21.2054ZM122.307 21.202C121.787 21.2138 121.402 21.3032 121.45 21.4009C121.499 21.4993 121.964 21.5785 122.483 21.5785H123.314C123.834 21.5785 124.299 21.4824 124.346 21.3655C124.394 21.2487 124.009 21.1616 123.489 21.1739L122.307 21.202ZM126.446 21.1975C125.926 21.2121 125.533 21.3037 125.572 21.4015C125.611 21.4993 126.069 21.5785 126.59 21.5785H126.934C127.453 21.5785 127.911 21.4824 127.949 21.3655C127.988 21.2481 127.596 21.1644 127.076 21.179L126.446 21.1975ZM132.295 21.2138C131.775 21.2195 131.437 21.3032 131.546 21.4009C131.654 21.4993 132.167 21.5785 132.686 21.5785H136.944C137.464 21.5785 137.977 21.4824 138.086 21.365C138.193 21.2481 137.857 21.1565 137.338 21.1621L132.295 21.2138ZM142.223 21.2138C141.703 21.2195 141.366 21.3032 141.475 21.4009C141.582 21.4993 142.096 21.5785 142.616 21.5785H146.873C147.393 21.5785 147.907 21.4824 148.016 21.365C148.125 21.2481 147.788 21.1565 147.269 21.1621L142.223 21.2138ZM167.326 21.2138C166.806 21.2195 166.47 21.3032 166.58 21.4009C166.687 21.4993 167.2 21.5785 167.722 21.5785H171.974C172.494 21.5785 173.008 21.4824 173.117 21.365C173.225 21.2481 172.888 21.1565 172.37 21.1621L167.326 21.2138ZM158.112 5.08613C157.592 5.09624 157.217 5.18278 157.278 5.28111C157.338 5.37888 157.814 5.45755 158.334 5.45755H159.899C160.419 5.45755 160.895 5.36202 160.956 5.24459C161.016 5.12771 160.641 5.03949 160.121 5.04904L158.112 5.08613ZM150.277 5.08894C149.758 5.09737 149.391 5.18278 149.46 5.28111C149.531 5.37888 150.013 5.45755 150.534 5.45755H152.586C153.107 5.45755 153.588 5.36202 153.659 5.24515C153.727 5.12771 153.36 5.03949 152.84 5.0468L150.277 5.08894ZM146.304 5.08163C145.784 5.09343 145.399 5.1839 145.449 5.28055C145.497 5.37832 145.96 5.45755 146.482 5.45755H147.364C147.884 5.45755 148.348 5.36202 148.398 5.24459C148.447 5.12715 148.064 5.04174 147.542 5.05354L146.304 5.08163ZM147.63 12.9084C147.11 12.9174 146.738 13.0044 146.801 13.1022C146.862 13.2 147.339 13.2781 147.858 13.2781H149.521C150.04 13.2781 150.516 13.1831 150.58 13.0668C150.643 12.9494 150.269 12.8617 149.749 12.8702L147.63 12.9084ZM123.412 4.55176C122.891 4.56356 122.506 4.6529 122.556 4.75067C122.604 4.84732 123.068 4.92711 123.589 4.92711H124.47C124.99 4.92711 125.454 4.83159 125.503 4.71471C125.551 4.59784 125.166 4.5113 124.646 4.52423L123.412 4.55176ZM129.037 4.55176C128.517 4.56356 128.132 4.6529 128.181 4.75067C128.229 4.84732 128.696 4.92711 129.214 4.92711H130.099C130.618 4.92711 131.083 4.83159 131.132 4.71471C131.179 4.59784 130.795 4.5113 130.274 4.52423L129.037 4.55176ZM125.435 7.9951C125.015 8.01308 124.692 8.10972 124.717 8.20749C124.741 8.30583 125.067 8.38618 125.437 8.38618C125.808 8.38618 126.132 8.28953 126.155 8.17266C126.178 8.0569 125.854 7.97655 125.435 7.9951ZM127.439 6.87803C126.919 6.89714 126.52 6.99322 126.548 7.091C126.578 7.18877 126.984 7.26912 127.451 7.26912C127.918 7.26912 128.323 7.17303 128.353 7.0556C128.382 6.9376 127.98 6.85724 127.461 6.87747L127.439 6.87803ZM102.391 7.091C101.872 7.10954 101.471 7.20506 101.501 7.30339C101.529 7.40117 101.935 7.48152 102.403 7.48152C102.87 7.48152 103.275 7.38543 103.308 7.26856C103.339 7.15112 102.937 7.07021 102.419 7.08931L102.391 7.091ZM108.681 12.7353C108.159 12.751 107.764 12.8437 107.802 12.9421C107.838 13.0393 108.294 13.1196 108.813 13.1196H108.975C109.495 13.1196 109.95 13.0247 109.985 12.9078C110.022 12.7898 109.627 12.7072 109.107 12.7218L108.681 12.7353ZM104.267 14.7683C103.748 14.7801 103.368 14.8666 103.425 14.9638C103.481 15.0621 103.951 15.1408 104.472 15.1408H105.761C106.28 15.1408 106.751 15.0447 106.807 14.9278C106.863 14.8098 106.483 14.7227 105.965 14.734L104.267 14.7683ZM166.717 15.1936C166.197 15.2054 165.819 15.292 165.876 15.3903C165.932 15.4875 166.404 15.5667 166.923 15.5667H168.21C168.73 15.5667 169.201 15.4706 169.258 15.3532C169.314 15.2363 168.935 15.1498 168.418 15.1599L166.717 15.1936ZM62.8387 16.7838C62.3195 16.7973 61.9279 16.8894 61.9693 16.9861C62.0118 17.0827 62.471 17.162 62.9902 17.162H63.496C64.0152 17.162 64.4761 17.0664 64.5186 16.9496C64.5612 16.8327 64.1719 16.749 63.6516 16.7619L62.8387 16.7838ZM54.0094 15.0807C53.4902 15.0942 53.0998 15.1863 53.1418 15.283C53.1837 15.3796 53.6423 15.4594 54.1615 15.4594H54.6685C55.1888 15.4594 55.6492 15.3639 55.6917 15.2476C55.7342 15.1301 55.3438 15.0458 54.824 15.0593L54.0094 15.0807ZM41.4292 14.9205C40.9094 14.934 40.5196 15.0262 40.5621 15.1234C40.6058 15.2212 41.0662 15.3009 41.5854 15.3009H42.0912C42.6104 15.3009 43.0707 15.2049 43.1133 15.0869C43.1564 14.97 42.7654 14.8851 42.2456 14.8986L41.4292 14.9205ZM22.3996 8.43169C21.8804 8.44125 21.5016 8.52665 21.5587 8.62442C21.617 8.72276 22.0884 8.80367 22.6088 8.80592L23.9944 8.81098C24.5136 8.81322 24.9874 8.71826 25.0445 8.60139C25.1033 8.48395 24.7263 8.39517 24.2066 8.40304L22.3996 8.43169ZM58.1193 5.34798C57.603 5.29291 57.2021 5.33224 57.2306 5.43451C57.2586 5.5379 57.7032 5.67669 58.2178 5.74355L58.7206 5.80874C59.2358 5.87673 59.7048 5.84189 59.7625 5.73176C59.8202 5.62162 59.4461 5.48677 58.9287 5.43226L58.1193 5.34798ZM112.267 16.091C111.747 16.1039 111.356 16.1955 111.399 16.2927C111.441 16.3899 111.902 16.4691 112.42 16.4691H112.926C113.446 16.4691 113.905 16.3736 113.948 16.2567C113.989 16.1399 113.6 16.0556 113.079 16.0691L112.267 16.091ZM128.155 14.6025C127.636 14.616 127.245 14.707 127.288 14.8048C127.331 14.9014 127.791 14.9807 128.31 14.9807H128.816C129.337 14.9807 129.795 14.8846 129.838 14.7677C129.879 14.6497 129.49 14.5671 128.971 14.58L128.155 14.6025ZM89.9762 4.93554C89.457 4.9406 89.1394 5.02432 89.2729 5.12265C89.4063 5.21986 89.9389 5.29965 90.4581 5.29965H96.0527C96.5719 5.29965 97.1045 5.20469 97.2374 5.08613C97.3685 4.96925 97.0521 4.87654 96.5317 4.8816L89.9762 4.93554ZM71.0561 4.99004C70.5375 4.99454 70.2228 5.0777 70.3603 5.17491C70.4973 5.27324 71.0351 5.35191 71.5537 5.35191H77.3878C77.9071 5.35191 78.4437 5.25695 78.5807 5.13895C78.7176 5.02207 78.4029 4.92992 77.8837 4.93442L71.0561 4.99004ZM70.0643 12.7499C69.5445 12.7572 69.1798 12.8437 69.2538 12.9415C69.3272 13.0398 69.8132 13.1202 70.3329 13.1202H72.6498C73.1684 13.1202 73.6544 13.0247 73.7278 12.9078C73.8013 12.7909 73.4365 12.7016 72.9173 12.7089L70.0643 12.7499ZM75.1374 12.7493C74.6182 12.7567 74.2499 12.8437 74.3205 12.9415C74.391 13.0398 74.8729 13.1202 75.3926 13.1202H77.4636C77.9822 13.1202 78.4647 13.0252 78.5352 12.9084C78.6057 12.7904 78.2374 12.701 77.7183 12.7095L75.1374 12.7493ZM86.0079 20.1811C85.4881 20.1979 85.0913 20.2929 85.1245 20.3895C85.1577 20.4867 85.6099 20.5671 86.1297 20.5671H86.1454C86.6646 20.5671 87.1174 20.4716 87.1524 20.3541C87.1879 20.2367 86.7905 20.1552 86.2707 20.1721L86.0079 20.1811ZM84.5144 7.71077C83.9981 7.6529 83.6042 7.69223 83.6404 7.79393C83.6765 7.89957 84.1264 8.03949 84.6409 8.10804L85.5901 8.23559C86.1052 8.30302 86.5802 8.27043 86.6466 8.16029C86.713 8.05016 86.3459 7.91418 85.829 7.85631L84.5144 7.71077ZM131.957 16.1174C131.44 16.0595 131.047 16.0972 131.085 16.1994C131.118 16.3034 131.572 16.4438 132.087 16.513L133.032 16.6394C133.548 16.7074 134.022 16.6748 134.089 16.5652C134.155 16.4562 133.787 16.3197 133.272 16.2629L131.957 16.1174ZM130.238 7.9951C129.849 8.01308 129.548 8.10972 129.57 8.20749C129.592 8.30583 129.892 8.38618 130.236 8.38618C130.583 8.38618 130.882 8.28953 130.904 8.17266C130.926 8.0569 130.627 7.97655 130.238 7.9951ZM152.65 12.9095C152.131 12.9185 151.762 13.0039 151.831 13.1017C151.902 13.1994 152.383 13.2792 152.903 13.2792H154.959C155.477 13.2792 155.961 13.1831 156.03 13.0663C156.098 12.9494 155.73 12.8617 155.21 12.8685L152.65 12.9095ZM170.854 5.08276C170.335 5.094 169.95 5.18334 170.001 5.28111C170.051 5.37888 170.518 5.45755 171.037 5.45755H171.981C172.503 5.45755 172.969 5.36259 173.018 5.24459C173.069 5.12771 172.686 5.0423 172.166 5.05298L170.854 5.08276ZM89.207 21.2127C88.6878 21.2195 88.3411 21.3037 88.4355 21.4015C88.5322 21.4993 89.0351 21.5779 89.5543 21.5779H93.0937C93.6129 21.5779 94.1158 21.4824 94.2125 21.3655C94.3081 21.2487 93.9608 21.1576 93.4422 21.1644L89.207 21.2127ZM66.0366 21.215C65.5168 21.22 65.1952 21.3026 65.3205 21.4004C65.4463 21.4987 65.9731 21.5779 66.4935 21.5779H71.7425C72.2623 21.5779 72.7908 21.4819 72.9167 21.3639C73.0426 21.247 72.7197 21.1548 72.2005 21.1599L66.0366 21.215ZM74.6433 21.2082C74.1247 21.2178 73.7558 21.3037 73.8246 21.4015C73.8939 21.4993 74.3752 21.5779 74.8944 21.5779H76.9159C77.4351 21.5779 77.9158 21.4819 77.9863 21.365C78.0539 21.2481 77.685 21.1593 77.1658 21.1666L74.6433 21.2082ZM33.692 21.2554C33.1728 21.2672 32.7853 21.3571 32.8342 21.4543C32.882 21.5527 33.3452 21.6313 33.8662 21.6313H34.7158C35.235 21.6313 35.6994 21.5358 35.7472 21.4184C35.7961 21.3009 35.411 21.2161 34.8918 21.2273L33.692 21.2554Z" fill="#E1DCD7"/>
</g>
<defs>
<clipPath id="clip0_3109_1475">
<rect y="0.6875" width="175" height="28.0125" rx="4" fill="white"/>
</clipPath>
</defs>
</svg>
